# xmcd CD Database Entry
#
# Track frame offsets:
# 150
# 24391
# 44635
# 62282
# 94567
# 117118
# 143300
# 166184
#
# Disc length: 2489 seconds
#
# Revision: 1
# Processed by: cddbd v1.4PL0 Copyright (c) Steve Scherf et al.
# Submitted via: tcd 2.0b
#
DISCID=5509b708
DTITLE=Onbekend - Onbekend
DYEAR=1900
DGENRE=
TTITLE0=Nummer 1
TTITLE1=Nummer 2
TTITLE2=Nummer 3
TTITLE3=Nummer 4
TTITLE4=Nummer 5
TTITLE5=Nummer 6
TTITLE6=Nummer 7
TTITLE7=Nummer 8
EXTD=
EXTT0=
EXTT1=
EXTT2=
EXTT3=
EXTT4=
EXTT5=
EXTT6=
EXTT7=
PLAYORDER=
